<?xml version="1.0" encoding="utf-8"?>
<!-- Uploaded to: SVG Repo, www.svgrepo.com, Generator: SVG Repo Mixer Tools -->
<svg width="800px" height="800px" viewBox="0 0 1024 1024" class="icon"  version="1.1" xmlns="http://www.w3.org/2000/svg"><path d="M391.466667 1002.666667a36.693333 36.693333 0 0 1-36.053334-31.146667L290.133333 533.333333h443.733334l-65.066667 438.186667a36.693333 36.693333 0 0 1-36.266667 31.146667z" fill="#FDCA89" /><path d="M709.12 554.666667l-61.44 413.866666a15.146667 15.146667 0 0 1-14.933333 12.8H391.466667a15.146667 15.146667 0 0 1-14.933334-12.8L314.88 554.666667h394.24m49.493333-42.666667H265.386667l68.906666 462.72A57.813333 57.813333 0 0 0 391.466667 1024h241.066666a57.813333 57.813333 0 0 0 57.173334-49.28L758.613333 512z" fill="#5C2D51" /><path d="M520.106667 165.12m-143.786667 0a143.786667 143.786667 0 1 0 287.573333 0 143.786667 143.786667 0 1 0-287.573333 0Z" fill="#FFFFFF" /><path d="M520.106667 42.666667a122.453333 122.453333 0 1 1-122.666667 122.453333A122.666667 122.666667 0 0 1 520.106667 42.666667m0-42.666667a165.12 165.12 0 1 0 165.12 165.12A165.12 165.12 0 0 0 520.106667 0z" fill="#5C2D51" /><path d="M644.693333 314.453333m-150.4 0a150.4 150.4 0 1 0 300.8 0 150.4 150.4 0 1 0-300.8 0Z" fill="#F05071" /><path d="M644.693333 185.386667a129.066667 129.066667 0 1 1-129.066666 129.066666 129.28 129.28 0 0 1 129.066666-129.066666m0-42.666667a171.733333 171.733333 0 1 0 171.733334 171.733333 171.733333 171.733333 0 0 0-171.733334-171.733333z" fill="#5C2D51" /><path d="M392.106667 315.733333m-163.2 0a163.2 163.2 0 1 0 326.4 0 163.2 163.2 0 1 0-326.4 0Z" fill="#9FDBAD" /><path d="M392.106667 173.866667a141.866667 141.866667 0 1 1-141.866667 141.866666 142.08 142.08 0 0 1 141.866667-141.866666m0-42.666667A184.533333 184.533333 0 1 0 576 315.733333a184.533333 184.533333 0 0 0-183.893333-184.533333z" fill="#5C2D51" /><path d="M257.706667 573.44A44.586667 44.586667 0 0 1 213.333333 528.853333v-85.333333a9.6 9.6 0 0 1 9.6-9.6h578.133334a9.6 9.6 0 0 1 9.6 9.6v85.333333a44.586667 44.586667 0 0 1-44.373334 44.373334z" fill="#FDCA89" /><path d="M789.333333 455.04v73.813333a23.04 23.04 0 0 1-23.04 23.04H257.706667A23.04 23.04 0 0 1 234.666667 528.853333v-73.813333h554.666666m11.733334-42.666667H222.933333A30.933333 30.933333 0 0 0 192 443.306667v85.333333a65.706667 65.706667 0 0 0 65.706667 65.706667h508.586666A65.706667 65.706667 0 0 0 832 528.853333v-85.333333a30.933333 30.933333 0 0 0-30.933333-30.933333z" fill="#5C2D51" /></svg>