<?xml version="1.0" encoding="utf-8"?>
<!-- Uploaded to: SVG Repo, www.svgrepo.com, Generator: SVG Repo Mixer Tools -->
<svg width="800px" height="800px" viewBox="0 0 1024 1024" class="icon"  version="1.1" xmlns="http://www.w3.org/2000/svg"><path d="M512.103402 1002.649747a725.321094 725.321094 0 0 1-138.664327-12.799784A38.612682 38.612682 0 0 1 339.946307 954.223897V566.177112a114.131407 114.131407 0 0 1 17.919697-61.012303l36.479385-58.665677a121.171289 121.171289 0 0 0 18.133027-51.199136L439.357962 130.131137a10.879816 10.879816 0 0 1 11.519806-7.253211h122.237937a10.879816 10.879816 0 0 1 11.733136 7.679871l26.666216 264.31554a120.957959 120.957959 0 0 0 18.133028 51.625795l36.479384 58.665677a114.131407 114.131407 0 0 1 17.919698 61.012303v388.046785a38.186022 38.186022 0 0 1-33.066109 35.412736 705.268099 705.268099 0 0 1-138.877656 13.013114z" fill="#9FDBAD" /><path d="M564.795846 144.2109l25.386238 253.435723a146.770857 146.770857 0 0 0 21.332973 60.158985l36.692714 58.665677a94.718402 94.718402 0 0 1 14.506422 49.705827v388.046785c0 6.399892-6.826551 12.586454-16.853049 14.719752a674.335287 674.335287 0 0 1-133.757742 12.373125 673.055309 673.055309 0 0 1-134.824392-12.586455C368.105831 966.810352 361.27928 959.9838 361.27928 954.223897V566.177112a94.718402 94.718402 0 0 1 14.506422-49.705827l36.692714-58.665677a143.144251 143.144251 0 0 0 21.332973-60.798974L459.410957 144.2109h105.384889m8.319859-42.665947H450.877768A31.78613 31.78613 0 0 0 418.024989 127.99784L391.358772 392.740039a102.398272 102.398272 0 0 1-14.933081 42.665947L339.946307 493.858333a135.251051 135.251051 0 0 0-21.332974 72.318779v388.046785a59.518996 59.518996 0 0 0 50.132488 56.31905 718.281212 718.281212 0 0 0 143.357581 13.439773 717.214564 717.214564 0 0 0 143.144251-13.439773 59.518996 59.518996 0 0 0 50.132487-56.31905V566.177112a135.251051 135.251051 0 0 0-21.332973-72.318779l-36.479385-58.665677a102.398272 102.398272 0 0 1-14.933081-42.665947L605.968484 127.99784a31.78613 31.78613 0 0 0-32.852779-26.452887z" fill="#5C2D51" /><path d="M448.317811 127.99784V48.639179A27.306206 27.306206 0 0 1 475.410687 21.332973h73.172099a27.306206 27.306206 0 0 1 27.519536 27.306206V127.99784z" fill="#F05071" /><path d="M548.582786 42.665947a6.186562 6.186562 0 0 1 6.186562 5.973232V106.664867h-85.331893V48.639179A5.973233 5.973233 0 0 1 475.410687 42.665947h73.172099m0-42.665947H475.410687a48.639179 48.639179 0 0 0-48.639179 48.639179V127.99784a21.332973 21.332973 0 0 0 21.332974 21.332973h127.99784a21.332973 21.332973 0 0 0 21.332973-21.332973V48.639179A48.852509 48.852509 0 0 0 548.582786 0z" fill="#5C2D51" /><path d="M339.946307 613.322984h344.10086v183.6769H339.946307z" fill="#FDCA89" /><path d="M662.714193 634.655957v141.010954H361.27928v-141.010954h301.434913m42.665947-42.665947H318.613333v226.342847h386.766807V591.99001z" fill="#5C2D51" /></svg>