<?xml version="1.0" encoding="utf-8"?>
<!-- Uploaded to: SVG Repo, www.svgrepo.com, Generator: SVG Repo Mixer Tools -->
<svg width="800px" height="800px" viewBox="0 -72.5 1169 1169" class="icon"  version="1.1" xmlns="http://www.w3.org/2000/svg"><path d="M799.97609 293.335176l182.864289-167.827702a24.252558 24.252558 0 0 0 4.36546-30.315698 71.059995 71.059995 0 0 1 0-30.073172A51.900475 51.900475 0 0 1 1041.289044 24.374306a46.807437 46.807437 0 0 1 42.199451 43.654605A33.953581 33.953581 0 0 0 1111.378937 97.131981 38.561568 38.561568 0 0 1 1142.422212 133.995869c2.425256 29.588121-6.06314 41.7144-32.255903 45.837335a107.923884 107.923884 0 0 1-16.97679 1.455153 74.697879 74.697879 0 0 1-11.398703 0h-4.122935a24.252558 24.252558 0 0 0-17.704367 7.518294l-182.621763 191.352684z" fill="#FDCA89" /><path d="M1041.289044 48.626864c11.641228 0 17.219316 15.279112 18.189419 22.312354a57.963614 57.963614 0 0 0 48.505116 50.445321 14.551535 14.551535 0 0 1 10.186075 14.551535 36.863888 36.863888 0 0 1 0 16.491739 24.252558 24.252558 0 0 1-10.671126 3.395358 84.398902 84.398902 0 0 1-13.096381 0h-7.760819a48.505116 48.505116 0 0 0-44.139656 14.066484l-164.432344 173.405791-43.897131-48.505116L999.332119 143.211841a48.505116 48.505116 0 0 0 11.156176-56.265935 56.508461 56.508461 0 0 1 0-18.431944C1014.126179 48.626864 1038.621263 48.626864 1041.289044 48.626864m0-48.505116a75.425456 75.425456 0 0 0-78.335763 61.116446 72.757675 72.757675 0 0 0 3.395358 46.322387L765.779983 291.152446l111.319242 122.717944 200.568656-210.269679a92.887298 92.887298 0 0 0 15.764163 0 133.146544 133.146544 0 0 0 20.614675-1.697679c48.505116-7.518293 55.053307-40.986823 52.628051-72.757675A62.5716 62.5716 0 0 0 1115.501872 72.879422a9.701023 9.701023 0 0 1-8.003344-8.488395A70.332419 70.332419 0 0 0 1041.289044 0.121748z" fill="#5C2D51" /><path d="M369.250657 997.38694A342.203596 342.203596 0 0 1 196.572443 360.029711l6.305665-3.637883A339.535815 339.535815 0 0 1 320.260489 315.405004a554.898531 554.898531 0 0 1 103.073373-8.973446c27.162865 0 53.113102 1.455153 77.850711 2.910307s43.89713 2.425256 64.26928 2.425255H584.613374a450.370005 450.370005 0 0 0 163.947293-43.412079 72.757675 72.757675 0 0 1 28.860544-7.275767 18.67447 18.67447 0 0 1 11.641228 2.910307c10.913651 9.701023 66.209484 63.056651 97.010233 91.67467l22.069828 21.342251c6.790716 6.548191 7.518293 26.92034-3.395358 48.505116-48.505116 102.10327-174.375893 351.662094-288.362917 467.346797l-5.578089 5.335562-15.036586 14.066484-4.36546 3.637884a342.931173 342.931173 0 0 1-222.153433 81.488595z" fill="#F05071" /><path d="M775.481007 285.816883c15.764163 14.79406 64.026754 61.116447 90.947093 87.30921l20.129623 19.402046a50.202795 50.202795 0 0 1-6.06314 24.252558c-48.505116 100.890642-172.193163 347.781684-283.997456 460.798606l-4.850512 4.850512-12.368804 11.641227-4.850512 4.122935A318.193563 318.193563 0 1 1 208.213671 380.886911l3.880409-2.18273a315.283256 315.283256 0 0 1 111.561768-39.046619h1.940204a527.008089 527.008089 0 0 1 97.010233-8.245869c26.435288 0 51.900475 1.455153 76.638084 2.667781s44.624707 2.425256 65.724432 2.425256h18.916996A474.865089 474.865089 0 0 0 757.534113 291.152446a49.96027 49.96027 0 0 1 17.946894-5.093037m0-48.505117a97.010233 97.010233 0 0 0-39.046619 9.458498 427.08755 427.08755 0 0 1-154.731321 41.229349h-16.976791c-41.7144 0-89.49194-5.335563-142.362517-5.335563A574.543103 574.543103 0 0 0 317.835234 291.152446a363.788373 363.788373 0 0 0-131.448866 46.079861l-2.910307 2.425255a366.69868 366.69868 0 1 0 421.509461 596.370406c6.548191-5.578088 13.096381-11.641228 19.887098-18.189419l6.548191-6.54819C747.590565 793.665452 873.946393 543.379051 924.149188 436.667795c14.551535-30.558223 14.551535-61.844023-1.697679-77.36566s-103.558423-99.92054-119.565112-113.016922a40.986823 40.986823 0 0 0-27.647916-8.973446z" fill="#5C2D51" /><path d="M212.336605 473.531684c6.305665 15.521637-20.129623 80.033442-34.196107 138.482107-18.189419 74.940405 3.637884 156.429-10.186074 164.67487-21.827302 13.096381-54.568256-28.132967-59.661293-99.92054a280.117047 280.117047 0 0 1 36.136312-154.731321c23.03993-35.651261 63.541702-59.418768 67.907162-48.505116z" fill="#FFFFFF" /></svg>