<?xml version="1.0" encoding="utf-8"?>
<!-- Uploaded to: SVG Repo, www.svgrepo.com, Generator: SVG Repo Mixer Tools -->
<svg width="800px" height="800px" viewBox="0 0 1024 1024" class="icon"  version="1.1" xmlns="http://www.w3.org/2000/svg"><path d="M276.108053 1002.666667a20.053333 20.053333 0 0 1-20.053333-19.626667L240.481387 214.826667a27.733333 27.733333 0 0 1 27.733333-28.373334h446.506667a27.733333 27.733333 0 0 1 27.733333 28.16l-15.573333 768a20.053333 20.053333 0 0 1-20.053334 19.626667z" fill="#9FDBAD" /><path d="M714.721387 207.786667a6.4 6.4 0 0 1 6.4 6.4l-15.573334 768H277.388053L261.81472 213.333333a6.4 6.4 0 0 1 6.4-6.4h446.506667m0-42.666666H268.21472A49.066667 49.066667 0 0 0 219.148053 215.253333l15.573334 768A41.386667 41.386667 0 0 0 276.108053 1024h430.933334a41.386667 41.386667 0 0 0 41.386666-40.533333l15.573334-768a49.066667 49.066667 0 0 0-49.066667-49.92z" fill="#5C2D51" /><path d="M276.108053 1002.666667a20.053333 20.053333 0 0 1-20.053333-19.626667l-10.026667-496h490.666667l-9.813333 496a20.053333 20.053333 0 0 1-20.053334 19.626667z" fill="#F05071" /><path d="M715.148053 508.373333L705.761387 981.333333H277.388053l-9.6-472.96h448m42.666667-42.666666H224.268053L234.721387 983.466667A41.386667 41.386667 0 0 0 276.108053 1024h430.933334a41.386667 41.386667 0 0 0 41.386666-40.533333l10.453334-517.76z" fill="#5C2D51" /><path d="M527.41472 952.746667a290.346667 290.346667 0 0 1-52.266667-5.12l90.026667-844.16a29.013333 29.013333 0 0 1 21.333333-24.533334l178.56-54.186666a289.28 289.28 0 0 1 17.92 55.893333L624.481387 126.293333l-89.813334 826.453334z" fill="#FFFFFF" /><path d="M752.481387 50.56c1.706667 4.906667 3.413333 10.026667 4.906666 14.933333l-124.586666 36.266667-27.306667 7.893333L603.148053 138.026667l-87.466666 793.173333-17.92-1.493333L586.29472 106.666667a7.68 7.68 0 0 1 5.333333-6.613334L752.481387 50.56M771.681387 0l-192 58.24a50.346667 50.346667 0 0 0-35.413334 42.666667L451.468053 960c0 7.893333 45.013333 14.08 75.946667 14.08 15.146667 0 26.666667-1.493333 27.093333-5.12L645.81472 142.72l156.8-45.866667c10.666667-1.28-18.986667-96.853333-30.933333-96.853333z" fill="#5C2D51" /><path d="M491.57472 165.12h178.773333v42.666667h-178.773333zM491.57472 465.706667h178.773333v42.666666h-178.773333z" fill="#5C2D51" /></svg>